<svg width="55" height="47" viewBox="0 0 55 47" fill="none" xmlns="http://www.w3.org/2000/svg">
<g filter="url(#filter0_d_2_733)">
<path d="M23.375 0.249995L16.125 28L14.125 18.625C17.0417 18.625 19.4583 19.5417 21.375 21.375C23.2917 23.2083 24.25 25.6667 24.25 28.75C24.25 31.8333 23.2917 34.3333 21.375 36.25C19.4583 38.0833 17.0833 39 14.25 39C11.25 39 8.79167 38.0417 6.875 36.125C4.95833 34.2083 4 31.75 4 28.75C4 27.75 4.04167 26.8333 4.125 26C4.29167 25.0833 4.58333 24 5 22.75C5.41667 21.5 6 19.9167 6.75 18L13.375 0.249995H23.375ZM49.875 0.249995L42.625 28L40.625 18.625C43.5417 18.625 45.9583 19.5417 47.875 21.375C49.7917 23.2083 50.75 25.6667 50.75 28.75C50.75 31.8333 49.7917 34.3333 47.875 36.25C45.9583 38.0833 43.5833 39 40.75 39C37.75 39 35.2917 38.0417 33.375 36.125C31.4583 34.2083 30.5 31.75 30.5 28.75C30.5 27.75 30.5417 26.8333 30.625 26C30.7917 25.0833 31.0833 24 31.5 22.75C31.9167 21.5 32.5 19.9167 33.25 18L39.875 0.249995H49.875Z" fill="white"/>
</g>
<defs>
<filter id="filter0_d_2_733" x="0" y="0.25" width="54.75" height="46.75" filterUnits="userSpaceOnUse" color-interpolation-filters="sRGB">
<feFlood flood-opacity="0" result="BackgroundImageFix"/>
<feColorMatrix in="SourceAlpha" type="matrix" values="0 0 0 0 0 0 0 0 0 0 0 0 0 0 0 0 0 0 127 0" result="hardAlpha"/>
<feOffset dy="4"/>
<feGaussianBlur stdDeviation="2"/>
<feComposite in2="hardAlpha" operator="out"/>
<feColorMatrix type="matrix" values="0 0 0 0 0 0 0 0 0 0 0 0 0 0 0 0 0 0 0.25 0"/>
<feBlend mode="normal" in2="BackgroundImageFix" result="effect1_dropShadow_2_733"/>
<feBlend mode="normal" in="SourceGraphic" in2="effect1_dropShadow_2_733" result="shape"/>
</filter>
</defs>
</svg>
