<svg width="47" height="39" viewBox="0 0 47 39" fill="none" xmlns="http://www.w3.org/2000/svg">
<path d="M27.625 38.75L34.875 11L36.875 20.375C33.9583 20.375 31.5417 19.4583 29.625 17.625C27.7083 15.7917 26.75 13.3333 26.75 10.25C26.75 7.16667 27.7083 4.66667 29.625 2.75C31.5417 0.916667 33.9167 -1.80186e-07 36.75 6.75117e-08C39.75 3.2978e-07 42.2083 0.958334 44.125 2.875C46.0417 4.79167 47 7.25 47 10.25C47 11.25 46.9583 12.1667 46.875 13C46.7083 13.9167 46.4167 15 46 16.25C45.5833 17.5 45 19.0833 44.25 21L37.625 38.75L27.625 38.75ZM1.125 38.75L8.375 11L10.375 20.375C7.45833 20.375 5.04167 19.4583 3.125 17.625C1.20833 15.7917 0.25 13.3333 0.250001 10.25C0.250001 7.16666 1.20833 4.66667 3.125 2.75C5.04167 0.916665 7.41667 -2.49689e-06 10.25 -2.24919e-06C13.25 -1.98692e-06 15.7083 0.958332 17.625 2.875C19.5417 4.79167 20.5 7.25 20.5 10.25C20.5 11.25 20.4583 12.1667 20.375 13C20.2083 13.9167 19.9167 15 19.5 16.25C19.0833 17.5 18.5 19.0833 17.75 21L11.125 38.75L1.125 38.75Z" fill="white"/>
</svg>
