<?xml version="1.0" encoding="utf-8"?><svg viewBox="0 0 1920 1013" xmlns="http://www.w3.org/2000/svg" xmlns:xlink="http://www.w3.org/1999/xlink"><style>:root>svg{display:none}:root>svg:target{display:block}</style><svg fill="none" viewBox="0 0 33 39" id="android" xmlns="http://www.w3.org/2000/svg"><path fill-rule="evenodd" clip-rule="evenodd" d="M8.563.06c-.224.082-.329.52-.237.996.06.316.1.365 1.145 1.398l1.082 1.07-.376.323c-2.166 1.86-3.427 4.357-3.565 7.06l-.022.418h19.799l-.022-.418c-.142-2.79-1.506-5.425-3.638-7.03l-.45-.338 1.07-1.047C24.636 1.23 24.783.99 24.553.512c-.19-.396-.698-.57-1.08-.371-.093.049-.732.645-1.419 1.325l-1.249 1.237-.635-.33c-1.054-.547-2.143-.772-3.735-.772-1.375 0-2.691.245-3.846.717l-.557.228-.587-.612c-.323-.337-.834-.877-1.135-1.2C10.01.41 9.687.11 9.593.07 9.39-.019 8.8-.024 8.563.06zm4.597 7.244v.804l-.8-.017-.802-.018-.017-.74c-.01-.406-.007-.769.007-.805.017-.042.302-.059.819-.046l.793.019v.803zm8.278 0l-.018.77-.8.017-.802.017v-1.61l.77-.018c.423-.01.792-.001.819.019.027.02.04.382.031.805zm-14.845 5.71c-.017.044-.023 3.8-.014 8.347.016 7.83.023 8.283.132 8.558.138.352.565.757.9.855.132.039.7.087 1.262.106l1.02.036.001 2.98c.001 3.157.006 3.221.308 3.804.197.381.732.872 1.17 1.075 1.303.6 2.776-.057 3.362-1.501.067-.166.093-.891.12-3.297l.034-3.083H18.09l.034 3.083c.026 2.406.053 3.13.12 3.297.456 1.124 1.491 1.816 2.569 1.717 1-.093 1.872-.823 2.181-1.83.07-.228.089-.888.09-3.266v-2.98l1.02-.035c.562-.02 1.13-.067 1.264-.106.36-.106.765-.506.9-.887.107-.303.114-.78.114-8.62v-8.3l-9.88-.016c-7.98-.013-9.885 0-9.91.063zm-4.955.117c-.67.26-1.221.802-1.494 1.467l-.144.35v6.133C0 28-.034 27.509.5 28.223c1.04 1.393 3.089 1.311 4.048-.162.394-.606.384-.435.384-6.95 0-6.431.007-6.308-.348-6.905-.18-.303-.67-.776-.953-.92-.616-.315-1.422-.377-1.992-.155zm28.093-.011a2.729 2.729 0 00-1.358 1.12c-.328.544-.326.494-.326 6.872 0 6.514-.01 6.343.385 6.949.468.72 1.256 1.163 2.07 1.164 1 .002 1.933-.644 2.34-1.621.136-.33.136-.33.154-6.214.012-3.917-.004-6.025-.048-6.307-.142-.902-.744-1.622-1.636-1.957-.435-.163-1.155-.166-1.58-.006z" fill="#AAA"/></svg><svg fill="none" viewBox="0 0 32 28" id="attention" xmlns="http://www.w3.org/2000/svg"><path d="M30.445 28H1.559a1.553 1.553 0 01-1.35-2.334L14.65.776a1.56 1.56 0 012.698 0l14.442 24.89A1.553 1.553 0 0130.443 28h.002zM16.002 4.665L4.264 24.89h23.48L16.001 4.665zm1.551 14.003h-3.117v-7.78h3.117v7.78z" fill="#FF9828"/><path d="M14.444 20.225h3.117v3.111h-3.117v-3.111z" fill="#FF9828"/></svg><svg fill="none" viewBox="0 0 1920 1013" id="blue_bg" xmlns="http://www.w3.org/2000/svg"><g filter="url(#cfilter0_f_2_483)"><path fill="url(#cpaint0_linear_2_483)" d="M-111-11h2039v1017H-111z"/></g><defs><linearGradient id="cpaint0_linear_2_483" x1="377.5" y1="-460.827" x2="1929.14" y2="877.932" gradientUnits="userSpaceOnUse"><stop stop-color="#1A47EA"/><stop offset="1" stop-color="#82E9FF"/></linearGradient><filter id="cfilter0_f_2_483" x="-118" y="-18" width="2053" height="1031" filterUnits="userSpaceOnUse" color-interpolation-filters="sRGB"><feFlood flood-opacity="0" result="BackgroundImageFix"/><feBlend in="SourceGraphic" in2="BackgroundImageFix" result="shape"/><feGaussianBlur stdDeviation="3.5" result="effect1_foregroundBlur_2_483"/></filter></defs></svg><svg fill="none" viewBox="0 0 1920 601" id="blue_bg_about" xmlns="http://www.w3.org/2000/svg"><path d="M0 0c734.674 161.401 1154.46 168.699 1920 0v601H0V0z" fill="url(#dpaint0_linear_2_485)"/><defs><linearGradient id="dpaint0_linear_2_485" x1="459.99" y1="-265.827" x2="1341.89" y2="946.607" gradientUnits="userSpaceOnUse"><stop stop-color="#1A47EA"/><stop offset="1" stop-color="#82E9FF"/></linearGradient></defs></svg><svg fill="none" viewBox="0 0 18 18" id="comment" xmlns="http://www.w3.org/2000/svg"><path d="M0 18V2a2 2 0 012-2h14a2 2 0 012 2v10a2 2 0 01-2 2H6c-.433 0-.854.14-1.2.4L0 18zM2 2v12l2.134-1.6c.346-.26.767-.401 1.2-.4H16V2H2z" fill="#2E3A59" fill-opacity=".43"/></svg><svg fill="none" viewBox="0 0 19 19" id="cross" xmlns="http://www.w3.org/2000/svg"><path d="M2.417 18.242l7.026-7.026 7.027 7.026 1.772-1.772-7.026-7.027 7.026-7.026L16.47.645 9.443 7.67 2.417.645.645 2.417 7.67 9.443.645 16.47l1.772 1.772z" fill="url(#fpaint0_linear_2_742)"/><defs><linearGradient id="fpaint0_linear_2_742" x1="9.443" y1="18.242" x2="-8.588" y2="-.183" gradientUnits="userSpaceOnUse"><stop stop-color="#0AA6FE"/><stop offset="1" stop-color="#05FFFF"/></linearGradient></defs></svg><svg fill="none" viewBox="0 0 60 59" id="diamonds" xmlns="http://www.w3.org/2000/svg"><path d="M11.561 27.394l1.18-21.132 20.024 19.955-21.204 1.177z" fill="#04FFFF"/><path d="M32.561 26.546L33.856 5.3 53.88 25.255l-21.318 1.29z" fill="#fff"/><path d="M31.008 47.323l1.221-21.172 20.023 19.956-21.244 1.216z" fill="#FF9B05"/></svg><svg fill="none" viewBox="0 0 47 54" id="discord" xmlns="http://www.w3.org/2000/svg"><path d="M47 54l-5.773-5.116-3.254-3.04-3.44-3.212 1.413 4.999H5.504C2.456 47.62-.008 45.128 0 42.063V5.562C-.005 2.499 2.458.011 5.504 0h35.992C44.542.011 47.005 2.5 47 5.562V54zM34.208 29.865a8.497 8.497 0 01-4.849 3.206c.797 1.023 1.758 2.18 1.767 2.191a9.877 9.877 0 008.218-4.104 36.61 36.61 0 00-3.867-15.74 13.305 13.305 0 00-7.514-2.842h-.032l-.376.432a18.058 18.058 0 016.69 3.428 21.934 21.934 0 00-8.086-2.592 22.433 22.433 0 00-5.422.054 2.243 2.243 0 00-.38.04h-.078c-2.108.244-4.165.82-6.096 1.705-.966.446-1.56.77-1.586.781-.025.012 0 0 0-.02a18.961 18.961 0 017.065-3.498l-.282-.324h-.017a13.31 13.31 0 00-7.515 2.842 36.332 36.332 0 00-3.867 15.74 9.708 9.708 0 008.198 4.104s1.012-1.24 1.801-2.243a8.384 8.384 0 01-4.713-3.183c.02.014.3.205.753.455.03.036.067.065.11.085a.785.785 0 00.113.066c.044.02.087.045.127.073.63.35 1.286.654 1.96.91 1.28.51 2.605.9 3.957 1.165 1.184.225 2.386.339 3.59.341 1.13 0 2.257-.105 3.367-.313a17.737 17.737 0 003.893-1.16 15.56 15.56 0 003.07-1.6zm-5.762-1.214a2.991 2.991 0 01-2.946-1.668 3.022 3.022 0 01.479-3.364 2.983 2.983 0 013.292-.771 3.01 3.01 0 011.909 2.805 2.882 2.882 0 01-2.737 2.998h.003zm-9.804 0a3.004 3.004 0 01-2.734-2.998 3.004 3.004 0 012.734-2.999 2.628 2.628 0 011.888.81c.561.586.867 1.373.848 2.186a2.879 2.879 0 01-2.74 3.001h.004z" fill="#fff"/></svg><svg fill="none" viewBox="0 0 46 46" id="equals" xmlns="http://www.w3.org/2000/svg"><path fill="#FB8500" d="M0 28.444L28.444 0l5.688 5.688L5.69 34.133zM11.377 39.821L39.82 11.378l5.689 5.688L17.066 45.51z"/></svg><svg fill="none" viewBox="0 0 1920 718" id="footer_bg" xmlns="http://www.w3.org/2000/svg"><path d="M-.5 305.06C573.25 577.732 873.344 133.571 1923.1.22l-7.71 710.086L2.903 725.779-.5 305.06z" fill="url(#jpaint0_linear_2_765)"/><defs><linearGradient id="jpaint0_linear_2_765" x1="456.186" y1="115.265" x2="990.482" y2="1139.93" gradientUnits="userSpaceOnUse"><stop stop-color="#1A47EA"/><stop offset="1" stop-color="#82E9FF"/></linearGradient></defs></svg><svg fill="none" viewBox="0 0 21 37" id="greater_sign" xmlns="http://www.w3.org/2000/svg"><path d="M17.776.635l-17.141 18 17.141 18 2.859-3-14.287-15 14.287-15-2.859-3z" fill="#fff"/></svg><svg fill="none" viewBox="0 0 30 40" id="ios" xmlns="http://www.w3.org/2000/svg"><path fill-rule="evenodd" clip-rule="evenodd" d="M23.525.061c-3.76.561-6.4 2.296-7.681 5.047a9.261 9.261 0 00-.837 3.74v.345l.348-.027c1.147-.09 2.436-.38 3.403-.766 3.144-1.257 5.01-3.966 5.247-7.62.042-.632.03-.788-.055-.78-.026.003-.217.03-.425.061zm-1.811 12.21c-1.17.075-1.647.193-4.22 1.05l-2.267.756-1.235-.41-1.955-.65c-1.243-.415-2.163-.558-3.319-.517-2.83.102-5.033 1.468-6.825 4.233-2.47 3.813-2.523 8.646-.156 14.481 1.506 3.714 3.452 6.55 5.417 7.9 1.116.766 2.16 1.017 3.428.824.51-.078.995-.233 1.736-.556 1.392-.607 2.012-.766 3.315-.851.542-.035.705-.032 1.015.022.677.118 1.673.39 2.618.712 1.675.573 1.934.633 2.746.629.486-.002.637-.02.955-.106.938-.256 1.782-.824 2.723-1.83 1.56-1.671 3.053-4.21 4.055-6.9.273-.732.284-.772.227-.772-.074 0-.806-.389-1.162-.617-1.867-1.197-3.093-2.936-3.52-4.993-.083-.405-.105-.644-.122-1.338-.024-.944.017-1.492.17-2.274.329-1.672 1.113-3.132 2.207-4.11.366-.327.918-.705 1.256-.86.14-.064.255-.125.255-.137.003-.053-.559-.775-.844-1.084a8.11 8.11 0 00-6.498-2.603z" fill="#fff"/></svg><svg fill="none" viewBox="0 0 61 32" id="left_arrow" xmlns="http://www.w3.org/2000/svg"><path d="M16.52 0L0 16l16.52 16 1.798-1.74L4.865 17.23H61v-2.46H4.865L18.318 1.74 16.52 0z" fill="#E2E2E2"/></svg><svg fill="none" viewBox="0 0 20 36" id="less_sign" xmlns="http://www.w3.org/2000/svg"><path d="M2.859 36L20 18 2.859 0 0 3l14.287 15L0 33l2.859 3z" fill="#fff"/></svg><svg fill="none" viewBox="0 0 20 15" id="mail" xmlns="http://www.w3.org/2000/svg"><path d="M18 15H2c-1.105 0-2-.84-2-1.875V1.793C.047.79.929 0 2 0h16c1.105 0 2 .84 2 1.875v11.25C20 14.161 19.105 15 18 15zM2 3.626v9.499h16V3.626l-8 4.999-8-4.999zm.8-1.751l7.2 4.5 7.2-4.5H2.8z" fill="#2E3A59" fill-opacity=".43"/></svg><svg fill="none" viewBox="0 0 33 33" id="play" xmlns="http://www.w3.org/2000/svg"><path fill-rule="evenodd" clip-rule="evenodd" d="M15.356.02a16.554 16.554 0 00-9.43 3.802c-.505.417-1.688 1.6-2.095 2.093C2.033 8.095.865 10.54.32 13.261c-.872 4.348.062 8.92 2.563 12.558a17.084 17.084 0 003.43 3.66 16.528 16.528 0 008.084 3.388c5.013.634 9.99-1.02 13.567-4.51 1.949-1.9 3.307-4.039 4.166-6.558 1.79-5.254.78-11.167-2.648-15.496-.635-.802-1.606-1.812-2.32-2.413C24.593 1.728 21.553.434 18.185.069c-.586-.063-2.236-.091-2.83-.048zm2.34 2.695c3.795.345 7.207 2.17 9.581 5.123 1.62 2.014 2.578 4.279 2.95 6.972.073.525.104 2.192.052 2.814-.557 6.722-5.878 12.072-12.582 12.65-.514.044-1.87.045-2.375.001A13.832 13.832 0 014.054 22.51a13.84 13.84 0 01-1.328-4.818c-.044-.478-.044-1.914 0-2.392.502-5.525 4.16-10.165 9.4-11.923 1.039-.348 2.01-.547 3.297-.673.282-.027 1.936-.02 2.274.012zm-4.62 6.248c-.315.071-.706.29-.948.53-.253.25-.459.641-.51.97-.046.301-.046 11.763 0 12.063.02.13.089.331.169.495.454.93 1.653 1.322 2.57.839.114-.06 2.192-1.42 4.618-3.021 2.93-1.935 4.47-2.97 4.584-3.085.096-.095.222-.256.28-.359.13-.226.24-.64.24-.9 0-.259-.11-.674-.24-.9a2.063 2.063 0 00-.28-.36c-.115-.114-1.661-1.155-4.613-3.103a574.884 574.884 0 00-4.56-2.994 2.065 2.065 0 00-1.31-.175z" fill="#fff"/></svg><svg fill="none" viewBox="0 0 23 23" id="plus" xmlns="http://www.w3.org/2000/svg"><path d="M10.19.253v9.937H.253v2.507h9.937v9.936h2.507v-9.936h9.936V10.19h-9.936V.253H10.19z" fill="url(#qpaint0_linear_2_745)"/><defs><linearGradient id="qpaint0_linear_2_745" x1="5.222" y1="5.222" x2="31" y2="5.5" gradientUnits="userSpaceOnUse"><stop stop-color="#0AA6FE"/><stop offset="1" stop-color="#05FFFF"/></linearGradient></defs></svg><svg fill="none" viewBox="0 0 99 67" id="ribbon" xmlns="http://www.w3.org/2000/svg"><path d="M3 67V42.879c0-10.482 11.582-16.826 20.415-11.181l6.228 3.98c6.138 3.923 14.186-.485 14.186-7.77v0c0-7.992 9.477-12.2 15.405-6.838l8.406 7.601c8.016 7.25 20.869 3.286 23.41-7.219L96 1" stroke="url(#rpaint0_linear_2_564)" stroke-width="6"/><defs><linearGradient id="rpaint0_linear_2_564" x1="3" y1="1" x2="222.707" y2="21.25" gradientUnits="userSpaceOnUse"><stop stop-color="#FF9B05"/><stop offset="1" stop-color="#FF6B00"/></linearGradient></defs></svg><svg fill="none" viewBox="0 0 54 30" id="right_arrow" xmlns="http://www.w3.org/2000/svg"><path d="M39.375 30L54 15 39.375 0l-1.59 1.632 11.909 12.214H0v2.308h49.694l-11.91 12.215L39.375 30z" fill="#fff"/></svg><svg fill="none" viewBox="0 0 53 46" id="telegram" xmlns="http://www.w3.org/2000/svg"><path fill-rule="evenodd" clip-rule="evenodd" d="M48.367.069c-.599.123-1.101.307-3.649 1.336a2608.04 2608.04 0 00-9.288 3.774c-.237.099-1.655.677-3.15 1.285-2.683 1.09-19.943 8.122-24.912 10.15-1.405.573-3.002 1.222-3.55 1.442-1.6.645-2.223.998-2.838 1.613-1.267 1.266-1.31 3.143-.104 4.578.35.416 1.156 1.017 1.728 1.288.23.108 2.687.936 5.46 1.84 2.774.902 5.06 1.661 5.082 1.686.021.025.495 1.49 1.053 3.257 2.802 8.882 2.964 9.357 3.463 10.16.31.5.83 1.003 1.244 1.206.53.26 1.294.382 1.864.296.573-.086 1.1-.274 1.441-.513.144-.102.827-.683 1.516-1.293 3.165-2.797 4.496-3.947 4.565-3.94.04.003 1.313.926 2.827 2.05 7.783 5.783 7.107 5.32 8.167 5.601.586.156 2.043.153 2.646-.006a4.635 4.635 0 002.498-1.625c.697-.893.65-.732 1.715-6 .53-2.629 1.068-5.286 1.193-5.904.245-1.209 1.797-8.902 2.223-11.016l1.426-7.066 1.56-7.72c.215-1.068.41-2.152.434-2.41.207-2.26-1.33-4.048-3.553-4.134-.382-.015-.8.01-1.061.065zm.492 4.13a1461.787 1461.787 0 01-1.189 5.925l-5.704 28.231c-.306 1.52-.578 2.878-.603 3.02-.06.331-.196.589-.356.672-.194.1-.547.08-.803-.048-.177-.089-4.975-3.62-9.185-6.76-2.85-2.124-2.955-2.197-3.07-2.108-.062.047-1.588 1.386-3.391 2.976-3.336 2.94-3.79 3.335-3.79 3.297 0-.031 1.448-8.972 1.492-9.212.03-.158.375-.502 1.709-1.702.92-.827 2.151-1.937 2.737-2.467.586-.53 2.782-2.509 4.878-4.398a3335.88 3335.88 0 004.211-3.796c.22-.199 1.1-.993 1.957-1.764 3.037-2.732 3.357-3.022 4.003-3.627.726-.68.844-.847.792-1.126-.079-.425-.399-.521-.996-.298-.174.064-1.003.53-1.842 1.037-.839.506-3.347 2.01-5.572 3.342a8470.34 8470.34 0 00-5.274 3.16c-1.19.714-5.788 3.469-10.225 6.125-1.375.823-2.197 1.278-2.256 1.25-.05-.026-2.703-.893-5.896-1.928-3.193-1.036-5.828-1.903-5.857-1.927-.029-.024 2.583-1.117 5.805-2.429a66179.38 66179.38 0 0020.32-8.279c8.388-3.418 9.628-3.923 13.798-5.611 2.335-.946 4.265-1.707 4.29-1.693.023.014.032.077.017.139z" fill="#fff"/></svg><svg fill="none" viewBox="0 0 22 24" id="user" xmlns="http://www.w3.org/2000/svg"><path d="M2.444 24H0v-1.263c.005-4.881 3.833-8.837 8.556-8.842h4.888c4.723.005 8.55 3.96 8.556 8.842V24h-2.444v-1.263c-.005-3.486-2.738-6.312-6.112-6.316H8.556c-3.374.004-6.108 2.83-6.112 6.316V24zM11 12.632c-3.375 0-6.111-2.828-6.111-6.316S7.625 0 11 0c3.375 0 6.111 2.828 6.111 6.316-.004 3.486-2.738 6.311-6.111 6.316zm0-10.106c-2.025 0-3.667 1.697-3.667 3.79s1.642 3.79 3.667 3.79 3.667-1.697 3.667-3.79-1.642-3.79-3.667-3.79z" fill="#fff"/></svg><svg fill="none" viewBox="0 0 33 29" id="windows" xmlns="http://www.w3.org/2000/svg"><path fill-rule="evenodd" clip-rule="evenodd" d="M12.265.013c-1.673.133-3.147.505-5.256 1.328-.099.039-.175.088-.19.122-.014.032-.722 2.466-1.574 5.408l-1.562 5.397c-.011.036.09.006.43-.13 1.634-.652 3.201-1.088 4.551-1.267.273-.036.573-.048 1.182-.049.713 0 .87.008 1.251.065 1.493.223 2.769.753 4.481 1.862.182.118.34.215.352.215.017 0 3.159-10.766 3.157-10.817-.001-.02-.734-.493-1.14-.734a14 14 0 00-1.561-.769 9.096 9.096 0 00-2.63-.62 15.503 15.503 0 00-1.491-.01zM19.2 8.685a854.877 854.877 0 00-1.57 5.455c-.009.063.032.097.393.326 1.336.848 2.348 1.308 3.53 1.603 1.893.473 3.963.332 6.293-.43.506-.164 1.49-.54 1.855-.709l.165-.076 1.571-5.418c.864-2.98 1.568-5.422 1.563-5.427a1.77 1.77 0 00-.26.093c-.138.056-.485.186-.771.29-2.67.972-4.956 1.246-6.96.836-1.256-.256-2.497-.803-3.914-1.725a5.93 5.93 0 00-.324-.203c-.006 0-.713 2.423-1.571 5.385zM8.713 12.827c-1.578.08-3.401.528-5.32 1.305l-.264.106-1.567 5.448A1169.53 1169.53 0 000 25.141c.003.004.238-.082.523-.192 2.396-.923 4.513-1.317 6.29-1.172 1.725.141 3.16.682 5.026 1.895.2.13.365.231.37.227.003-.005.724-2.465 1.601-5.467 1.313-4.494 1.589-5.466 1.558-5.494-.068-.064-.911-.595-1.236-.778-1.484-.838-2.884-1.27-4.286-1.324-.202-.007-.448-.017-.549-.022-.1-.004-.363.002-.584.013zm6.79 8.59a841.402 841.402 0 00-1.565 5.426c.005.063 1.33.87 1.882 1.147 2.57 1.286 5.283 1.342 8.78.181a26.555 26.555 0 001.508-.562c.077-.037.125-.195 1.65-5.44.864-2.97 1.564-5.408 1.556-5.416-.007-.007-.214.065-.458.16-1.599.625-3.17 1.03-4.58 1.182-.438.047-1.71.047-2.096 0-1.646-.2-3.022-.73-4.648-1.787a14.547 14.547 0 00-.41-.26c-.047-.025-.17.382-1.618 5.37z" fill="#AAA"/></svg></svg>